<svg width="206" height="162" viewBox="0 0 206 162" fill="none" xmlns="http://www.w3.org/2000/svg">
<mask id="mask0_2_9" style="mask-type:luminance" maskUnits="userSpaceOnUse" x="0" y="0" width="206" height="162">
<path d="M206 0H0V162H206V0Z" fill="white"/>
<path d="M70.071 7.54549V153H39.3182V36.7358H38.4659L5.15619 57.6165V30.3438L41.1648 7.54549H70.071ZM141.673 156.196C129.457 156.149 118.945 153.142 110.138 147.176C101.379 141.21 94.6319 132.569 89.897 121.253C85.2095 109.937 82.8894 96.324 82.9368 80.415C82.9368 64.553 85.2805 51.035 89.968 39.8608C94.7029 28.6865 101.45 20.1875 110.21 14.3636C119.016 8.49239 129.504 5.55679 141.673 5.55679C153.841 5.55679 164.305 8.49239 173.065 14.3636C181.871 20.2348 188.642 28.7576 193.377 39.9318C198.112 51.0587 200.456 64.553 200.408 80.415C200.408 96.371 198.041 110.008 193.306 121.324C188.619 132.64 181.895 141.281 173.136 147.247C164.376 153.213 153.888 156.196 141.673 156.196ZM141.673 130.699C150.006 130.699 156.658 126.509 161.63 118.128C166.602 109.747 169.064 97.176 169.016 80.415C169.016 69.383 167.88 60.197 165.607 52.858C163.382 45.5189 160.21 40.0028 156.09 36.3097C152.018 32.6165 147.212 30.7699 141.673 30.7699C133.387 30.7699 126.758 34.9129 121.786 43.1989C116.815 51.4848 114.305 63.89 114.258 80.415C114.258 91.589 115.371 100.917 117.596 108.398C119.869 115.831 123.065 121.419 127.184 125.159C131.303 128.852 136.133 130.699 141.673 130.699Z" fill="black"/>
</mask>
<g mask="url(#mask0_2_9)">
<path d="M70.071 7.54549H75.071V2.54549H70.071V7.54549ZM70.071 153V158H75.071V153H70.071ZM39.3182 153H34.3182V158H39.3182V153ZM39.3182 36.7358H44.3182V31.7358H39.3182V36.7358ZM38.4659 36.7358V31.7358H37.0283L35.8102 32.4994L38.4659 36.7358ZM5.1562 57.6165H0.15625V66.652L7.8119 61.853L5.1562 57.6165ZM5.1562 30.3438L2.48158 26.1193L0.15625 27.5915V30.3438H5.1562ZM41.1648 7.54549V2.54549H39.715L38.4901 3.32099L41.1648 7.54549ZM65.071 7.54549V153H75.071V7.54549H65.071ZM70.071 148H39.3182V158H70.071V148ZM44.3182 153V36.7358H34.3182V153H44.3182ZM39.3182 31.7358H38.4659V41.7358H39.3182V31.7358ZM35.8102 32.4994L2.50057 53.38L7.8119 61.853L41.1216 40.9722L35.8102 32.4994ZM10.1562 57.6165V30.3438H0.15625V57.6165H10.1562ZM7.8309 34.5682L43.8394 11.7699L38.4901 3.32099L2.48158 26.1193L7.8309 34.5682ZM41.1648 12.5455H70.071V2.54549H41.1648V12.5455ZM141.673 156.196L141.653 161.196H141.663H141.673V156.196ZM110.138 147.176L107.324 151.309L107.334 151.316L110.138 147.176ZM89.897 121.253L85.2776 123.166L85.2811 123.175L85.2845 123.183L89.897 121.253ZM82.9368 80.415L87.9368 80.43V80.422V80.415H82.9368ZM89.968 39.8608L85.3643 37.91L85.3608 37.9183L85.3573 37.9266L89.968 39.8608ZM110.21 14.3636L112.978 18.5274L112.983 18.5239L110.21 14.3636ZM173.065 14.3636L170.281 18.517L170.291 18.5239L173.065 14.3636ZM193.377 39.9318L188.773 41.8826L188.776 41.8896L193.377 39.9318ZM200.408 80.415L195.408 80.4V80.407V80.415H200.408ZM193.306 121.324L188.694 119.394L188.69 119.402L188.687 119.41L193.306 121.324ZM169.016 80.415H164.016V80.429L169.016 80.415ZM165.607 52.858L160.822 54.3088L160.827 54.323L160.831 54.337L165.607 52.858ZM156.09 36.3097L152.731 40.0132L152.742 40.0229L152.752 40.0325L156.09 36.3097ZM114.258 80.415L109.258 80.4V80.408V80.415H114.258ZM117.596 108.398L112.803 109.823L112.809 109.841L112.814 109.86L117.596 108.398ZM127.184 125.159L123.823 128.861L123.834 128.871L123.846 128.882L127.184 125.159ZM141.692 151.196C130.317 151.152 120.81 148.366 112.943 143.037L107.334 151.316C117.081 157.918 128.596 161.145 141.653 161.196L141.692 151.196ZM112.953 143.044C105.113 137.704 98.931 129.89 94.5095 119.323L85.2845 123.183C90.3327 135.248 97.645 144.716 107.324 151.309L112.953 143.044ZM94.5164 119.339C90.1455 108.787 87.8908 95.866 87.9368 80.43L77.9368 80.4C77.8881 96.782 80.2736 111.086 85.2776 123.166L94.5164 119.339ZM87.9368 80.415C87.9368 65.022 90.2143 52.1992 94.5788 41.795L85.3573 37.9266C80.3468 49.8709 77.9368 64.084 77.9368 80.415H87.9368ZM94.5718 41.8115C98.985 31.3965 105.153 23.7296 112.978 18.5274L107.441 10.1999C97.747 16.6454 90.4208 25.9766 85.3643 37.91L94.5718 41.8115ZM112.983 18.5239C120.851 13.2788 130.339 10.5568 141.673 10.5568V0.556793C128.669 0.556793 117.182 3.70599 107.436 10.2034L112.983 18.5239ZM141.673 10.5568C153.007 10.5568 162.466 13.279 170.281 18.517L175.848 10.2103C166.144 3.70579 154.676 0.556793 141.673 0.556793V10.5568ZM170.291 18.5239C178.171 23.777 184.362 31.4723 188.773 41.8826L197.981 37.9811C192.922 26.0428 185.572 16.6927 175.838 10.2034L170.291 18.5239ZM188.776 41.8896C193.177 52.231 195.454 65.015 195.408 80.4L205.408 80.43C205.457 64.091 203.047 49.8864 197.978 37.974L188.776 41.8896ZM195.408 80.415C195.408 95.899 193.108 108.843 188.694 119.394L197.919 123.254C202.974 111.172 205.408 96.844 205.408 80.415H195.408ZM188.687 119.41C184.312 129.971 178.156 137.778 170.321 143.115L175.95 151.38C185.634 144.784 192.925 135.31 197.925 123.237L188.687 119.41ZM170.321 143.115C162.513 148.433 153.042 151.196 141.673 151.196V161.196C154.735 161.196 166.239 157.994 175.95 151.38L170.321 143.115ZM141.673 135.699C152.099 135.699 160.239 130.273 165.93 120.679L157.33 115.577C153.078 122.744 147.913 125.699 141.673 125.699V135.699ZM165.93 120.679C171.585 111.146 174.065 97.494 174.016 80.401L164.016 80.429C164.063 96.858 161.618 108.348 157.33 115.577L165.93 120.679ZM174.016 80.415C174.016 69.08 172.854 59.356 170.383 51.3789L160.831 54.337C162.906 61.038 164.016 69.685 164.016 80.415H174.016ZM170.392 51.4071C167.999 43.5164 164.443 37.0827 159.428 32.5868L152.752 40.0325C155.976 42.9229 158.764 47.5215 160.822 54.3088L170.392 51.4071ZM159.449 32.6061C154.45 28.0715 148.444 25.7699 141.673 25.7699V35.7699C145.981 35.7699 149.587 37.1615 152.731 40.0132L159.449 32.6061ZM141.673 25.7699C131.311 25.7699 123.196 31.1304 117.499 40.6264L126.074 45.7713C130.319 38.6954 135.463 35.7699 141.673 35.7699V25.7699ZM117.499 40.6264C111.841 50.0563 109.306 63.537 109.258 80.4L119.258 80.429C119.304 64.243 121.788 52.9134 126.074 45.7713L117.499 40.6264ZM109.258 80.415C109.258 91.882 110.395 101.728 112.803 109.823L122.388 106.972C120.346 100.106 119.258 91.296 119.258 80.415H109.258ZM112.814 109.86C115.251 117.828 118.823 124.321 123.823 128.861L130.545 121.457C127.306 118.516 124.487 113.835 122.377 106.936L112.814 109.86ZM123.846 128.882C128.884 133.399 134.903 135.699 141.673 135.699V125.699C137.363 125.699 133.722 124.306 130.522 121.436L123.846 128.882Z" fill="#595959"/>
</g>
</svg>
