<svg width="116" height="158" viewBox="0 0 116 158" fill="none" xmlns="http://www.w3.org/2000/svg">
<path d="M4.28978 153V155.5H6.78978H110.483H112.983V153V127.858V125.358H110.483H54.5118L72.356 107.872C82.3695 98.7584 90.1872 90.8983 95.7716 84.303L95.7774 84.2961C101.364 77.6498 105.352 71.4797 107.617 65.7947C109.908 60.1635 111.065 54.4258 111.065 48.5966C111.065 39.7631 108.787 31.8404 104.185 24.9122C99.5992 18.0088 93.1942 12.6572 85.0624 8.83756C76.9443 4.95459 67.4965 3.05682 56.7898 3.05682C46.3383 3.05682 36.9995 5.03626 28.8361 9.06815L29.9151 11.2528L28.8361 9.06815C20.6725 13.1002 14.2711 18.8346 9.70275 26.2644C5.11592 33.7243 2.86932 42.4553 2.86932 52.3608V54.8608H5.36932H34.5597H37.0597V52.3608C37.0597 48.0438 37.8955 44.4658 39.4627 41.5377C41.0341 38.6015 43.2416 36.3771 46.1217 34.8136C49.0092 33.2461 52.4674 32.4176 56.5767 32.4176C60.497 32.4176 63.9128 33.1993 66.8808 34.7042L66.8934 34.7106L66.906 34.7168C69.8571 36.1715 72.1524 38.2465 73.8423 40.9669L73.8468 40.9742L73.8514 40.9815C75.5004 43.5957 76.3778 46.7848 76.3778 50.6563C76.3778 54.1382 75.6717 57.3449 74.2756 60.3087C72.8363 63.316 70.6873 66.4592 67.7764 69.734L67.7699 69.7413L67.7634 69.7486C64.8431 73.0862 61.2076 76.8638 56.8467 81.0848L5.09126 129.007L4.28978 129.749V130.841V153Z" fill="#141414" stroke="#595959" stroke-width="5"/>
</svg>
