<svg width="122" height="160" viewBox="0 0 122 160" fill="none" xmlns="http://www.w3.org/2000/svg">
<path d="M31.1933 151.801L31.2012 151.805L31.2091 151.808C39.8621 155.616 49.6601 157.489 60.554 157.489C71.7271 157.489 81.7377 155.594 90.5346 151.739C99.2999 147.898 106.273 142.58 111.351 135.745C116.512 128.86 119.068 120.968 119.02 112.161C119.067 102.556 116.079 94.3979 109.971 87.875C105.443 82.9668 99.4483 79.5538 92.1151 77.5394C97.2397 75.5506 101.665 72.5859 105.349 68.6272C110.937 62.6751 113.67 55.2505 113.622 46.5379C113.67 38.383 111.445 30.9771 106.941 24.3952C102.5 17.7868 96.2939 12.5891 88.4192 8.77553C80.4898 4.93553 71.3209 3.05682 60.9801 3.05682C50.728 3.05682 41.439 4.93757 33.1607 8.75392C24.949 12.5141 18.3471 17.771 13.4314 24.5427C8.47088 31.3761 5.93179 39.2675 5.78161 48.1281L5.73852 50.6705H8.28125H37.7557H40.1614L40.2538 48.2665C40.3777 45.0467 41.3348 42.33 43.0855 40.0223C44.8821 37.6541 47.2885 35.8045 50.3806 34.4915L50.3939 34.4858L50.4071 34.48C53.5156 33.1174 56.9807 32.4176 60.8381 32.4176C64.6396 32.4176 67.8365 33.1374 70.5018 34.4905L70.5086 34.494L70.5155 34.4974C73.2505 35.8649 75.3002 37.7319 76.7437 40.0976L76.7568 40.1189L76.7702 40.14C78.2361 42.4379 79.0057 45.1555 79.0057 48.3835C79.0057 51.7585 78.14 54.6128 76.469 57.0432C74.774 59.4613 72.3608 61.4135 69.1211 62.8628L69.1211 62.8628L69.1098 62.8679C65.9387 64.3055 62.206 65.0597 57.8551 65.0597H44.2898H41.7898V67.5597V90.1449V92.6449H44.2898H57.8551C63.0967 92.6449 67.4804 93.4591 71.0749 94.9996L71.0847 95.0038C74.7573 96.5592 77.4309 98.6582 79.2475 101.242L79.2604 101.26L79.2736 101.278C81.1224 103.81 82.0597 106.721 82.0597 110.102C82.0597 113.468 81.1755 116.348 79.4514 118.834C77.697 121.363 75.2464 123.386 72.0082 124.877C68.7923 126.358 65.0168 127.134 60.625 127.134C56.4003 127.134 52.6797 126.445 49.4243 125.117C46.1677 123.789 43.6422 121.966 41.7627 119.685C39.973 117.41 38.9941 114.79 38.8317 111.745L38.7054 109.378H36.3352H5.36932H2.82707L2.86967 111.92C3.01984 120.88 5.60918 128.868 10.6654 135.795L10.6714 135.803L10.6776 135.812C15.7456 142.636 22.6142 147.955 31.1933 151.801Z" fill="#141414" stroke="#595959" stroke-width="5"/>
</svg>
