<svg width="118" height="158" viewBox="0 0 118 158" fill="none" xmlns="http://www.w3.org/2000/svg">
<path d="M57.9148 152.989C47.8769 152.989 38.928 151.142 31.0682 147.449C23.2557 143.756 17.053 138.666 12.4602 132.179C7.86742 125.692 5.47632 118.259 5.28693 109.878H35.1165C35.4479 115.512 37.8153 120.081 42.2187 123.585C46.6222 127.089 51.8542 128.841 57.9148 128.841C62.7443 128.841 67.0057 127.776 70.6989 125.645C74.4394 123.467 77.3513 120.46 79.4347 116.625C81.5653 112.742 82.6307 108.292 82.6307 103.273C82.6307 98.1591 81.5417 93.661 79.3636 89.7784C77.233 85.8959 74.2737 82.8656 70.4858 80.6875C66.6979 78.5095 62.3655 77.3968 57.4886 77.3494C53.2273 77.3494 49.0843 78.2254 45.0597 79.9773C41.0824 81.7292 37.9811 84.1203 35.7557 87.1506L8.41193 82.25L15.3011 5.54547H104.222V30.6875H40.6562L36.892 67.1222H37.7443C40.3011 63.5237 44.16 60.5407 49.321 58.1733C54.482 55.8059 60.2585 54.6222 66.6506 54.6222C75.41 54.6222 83.2225 56.6818 90.0881 60.8012C96.9536 64.9205 102.375 70.5786 106.352 77.7756C110.33 84.9252 112.295 93.1638 112.247 102.491C112.295 112.293 110.022 121.005 105.429 128.628C100.884 136.204 94.5151 142.17 86.3239 146.526C78.1799 150.834 68.7102 152.989 57.9148 152.989Z" fill="#141414"/>
<path fill-rule="evenodd" clip-rule="evenodd" d="M28.9418 151.974L28.9313 151.969C20.4111 147.942 13.512 142.317 8.37953 135.068C3.17855 127.723 0.498825 119.31 0.288216 109.991L0.172668 104.878H39.831L40.1079 109.584C40.3561 113.805 42.0442 117.057 45.332 119.673C48.7802 122.417 52.8919 123.841 57.9148 123.841C61.9814 123.841 65.3561 122.953 68.1912 121.319C71.1296 119.606 73.3924 117.273 75.0411 114.238L75.0462 114.229L75.0513 114.22C76.7261 111.168 77.6307 107.564 77.6307 103.273C77.6307 98.8869 76.703 95.2552 75.0029 92.2247L74.9915 92.2044L74.9803 92.1839C73.2847 89.0941 70.9746 86.7362 67.9934 85.0221C65.0389 83.3232 61.5743 82.3929 57.4645 82.3495C53.9222 82.3527 50.468 83.0776 47.0642 84.5579C43.7676 86.0118 41.4148 87.8918 39.7857 90.1101L37.9411 92.6219L3.02234 86.3638L10.7301 0.545471H109.222V35.6875H45.1663L43.0887 55.7967C44.3971 55.0177 45.7816 54.2959 47.2363 53.6286C53.1291 50.9255 59.6297 49.6222 66.6506 49.6222C76.2283 49.6222 84.9458 51.8848 92.6606 56.5137C100.3 61.0976 106.334 67.4073 110.725 75.3502C115.17 83.3431 117.295 92.4398 117.247 102.493C117.294 113.103 114.822 122.723 109.716 131.202C104.679 139.595 97.6222 146.18 88.6715 150.94L88.6621 150.945C79.6833 155.696 69.3852 157.989 57.9148 157.989C47.2561 157.989 37.5631 156.025 28.9418 151.974ZM105.429 128.628C110.022 121.005 112.295 112.293 112.247 102.491C112.295 93.1638 110.33 84.9252 106.352 77.7756C102.375 70.5786 96.9536 64.9205 90.0881 60.8012C83.2225 56.6818 75.41 54.6222 66.6506 54.6222C60.2585 54.6222 54.482 55.8059 49.321 58.1733C46.6785 59.3855 44.3773 60.759 42.4175 62.294C40.5497 63.7568 38.992 65.3662 37.7443 67.1222H36.892L40.6562 30.6875H104.222V5.54547H15.3011L8.41193 82.25L35.7557 87.1506C37.9811 84.1203 41.0824 81.7292 45.0597 79.9773C49.0843 78.2254 53.2273 77.3494 57.4886 77.3494C62.3655 77.3968 66.6979 78.5095 70.4858 80.6875C74.2737 82.8656 77.233 85.8959 79.3636 89.7784C81.5417 93.661 82.6307 98.1591 82.6307 103.273C82.6307 108.292 81.5653 112.742 79.4347 116.625C77.3513 120.46 74.4394 123.467 70.6989 125.645C67.0057 127.776 62.7443 128.841 57.9148 128.841C51.8542 128.841 46.6222 127.089 42.2187 123.585C37.8153 120.081 35.4479 115.512 35.1165 109.878H5.28693C5.32548 111.584 5.45527 113.25 5.67627 114.878C6.54098 121.246 8.80229 127.013 12.4602 132.179C17.053 138.666 23.2557 143.756 31.0682 147.449C38.928 151.142 47.8769 152.989 57.9148 152.989C68.7102 152.989 78.1799 150.834 86.3239 146.526C94.5151 142.17 100.884 136.204 105.429 128.628Z" fill="#595959"/>
</svg>
