<svg width="118" height="158" viewBox="0 0 118 158" fill="none" xmlns="http://www.w3.org/2000/svg">
<path d="M29.9997 149.709L30.005 149.712L105.429 128.628L107.57 129.918C107.57 129.918 107.571 129.918 107.571 129.917C112.422 121.866 114.794 112.699 114.747 102.492C114.795 92.8019 112.75 84.1341 108.538 76.5628C104.354 68.9929 98.6269 63.009 91.3743 58.6574C84.0842 54.2833 75.8192 52.1222 66.6506 52.1222C59.9441 52.1222 53.8055 53.3657 48.2787 55.901C45.1165 57.3515 42.3575 59.0484 40.037 61.0079L42.9113 33.1875H104.222H106.722V30.6875V5.54547V3.04547H104.222H15.3011H13.0156L12.8112 5.32183L5.92195 82.0264L5.71713 84.3069L7.9709 84.7108L35.3147 89.6114L36.8484 89.8863L37.7707 88.6304C39.6981 86.0058 42.4256 83.87 46.0633 82.267C49.777 80.6513 53.575 79.8511 57.4762 79.8494C61.9699 79.8948 65.8685 80.9164 69.2396 82.8548C72.6241 84.8009 75.2588 87.495 77.172 90.9812L77.1776 90.9914L77.1833 91.0016C79.1223 94.4581 80.1307 98.523 80.1307 103.273C80.1307 107.928 79.1457 111.955 77.243 115.422L77.2378 115.432C75.3719 118.867 72.7846 121.536 69.4452 123.482C66.1811 125.364 62.3631 126.341 57.9148 126.341C52.373 126.341 47.7012 124.753 43.7753 121.629C39.9297 118.569 37.902 114.659 37.6122 109.731L37.4737 107.378H35.1165H5.28693H2.72979L2.78756 109.934C2.98757 118.784 5.52298 126.707 10.4199 133.624C15.2825 140.491 21.8334 145.849 29.9997 149.709Z" fill="#141414" stroke="#595959" stroke-width="5"/>
</svg>
