<svg width="124" height="160" viewBox="0 0 124 160" fill="none" xmlns="http://www.w3.org/2000/svg">
<path d="M63.5978 157.489L63.6027 157.489C74.7386 157.537 84.6266 155.338 93.1919 150.806L93.1965 150.804C101.774 146.243 108.487 139.916 113.275 131.837C118.122 123.74 120.517 114.53 120.517 104.278C120.517 94.8212 118.494 86.324 114.383 78.8543C110.294 71.4244 104.685 65.5567 97.5733 61.2984C90.4235 56.9698 82.2989 54.8324 73.2727 54.8324C67.707 54.8324 62.389 55.7025 57.3332 57.4536C52.3257 59.157 47.8234 61.6445 43.8447 64.9178C41.829 66.5719 40.0229 68.4047 38.4276 70.4135C39.2116 60.0698 41.5229 51.8181 45.2368 45.5422C49.7171 38.0491 56.1053 34.4063 64.679 34.4063C69.8167 34.4063 73.9455 35.7255 77.2256 38.2267C80.5082 40.7296 82.6998 44.1825 83.7644 48.7393L84.2157 50.6705H86.1989H116.526H119.339L119.008 47.8767C118.014 39.4729 115.122 31.8575 110.333 25.0714C105.585 18.2761 99.295 12.9223 91.5184 9.00817C83.6812 5.01602 74.713 3.05682 64.679 3.05682C55.3481 3.05682 46.8469 4.90022 39.2239 8.63574C31.6148 12.3171 25.0924 17.6843 19.6628 24.6934L19.6628 24.6934L19.6561 24.7022C14.2734 31.7145 10.1702 40.1997 7.3058 50.1037L7.30358 50.1115C4.48232 59.9859 3.06511 71.1339 3.01704 83.5301V83.5398C3.01704 97.0266 4.62275 108.544 7.9138 118.024L7.91764 118.035C11.2313 127.44 15.7602 135.123 21.5684 140.982C27.3075 146.77 33.8252 150.984 41.1129 153.58L41.118 153.581C48.3445 156.138 55.8418 157.44 63.5978 157.489ZM82.7947 93.3269L82.8003 93.3373L82.8061 93.3476C84.7101 96.7749 85.6875 100.682 85.6875 105.131C85.6875 109.579 84.7102 113.515 82.7998 116.996C80.8773 120.499 78.2479 123.253 74.8865 125.295C71.5692 127.311 67.7874 128.341 63.4716 128.341C59.1683 128.341 55.3955 127.294 52.0822 125.24C48.7563 123.149 46.1138 120.363 44.1376 116.844C42.2249 113.354 41.2557 109.49 41.2557 105.202C41.2557 102.01 41.8363 99.0468 42.9821 96.2886L42.9872 96.2761C44.1525 93.4274 45.7381 90.9465 47.7414 88.8129C49.7872 86.6842 52.1425 85.0302 54.821 83.8387C57.5108 82.663 60.4553 82.0625 63.6847 82.0625C68.0009 82.0625 71.7532 83.0926 75.0165 85.1007C78.3349 87.1428 80.9185 89.8731 82.7947 93.3269Z" fill="#141414" stroke="#595959" stroke-width="5"/>
</svg>
