<svg width="124" height="160" viewBox="0 0 124 160" fill="none" xmlns="http://www.w3.org/2000/svg">
<path d="M31.8838 151.963L31.8915 151.966L31.8993 151.97C40.7774 155.669 50.8434 157.489 62.0511 157.489C73.2584 157.489 83.3029 155.669 92.1366 151.968L92.1429 151.965C100.989 148.23 108.037 143.091 113.171 136.496C118.34 129.859 120.963 122.293 121.014 113.882L121.014 113.864L121.014 113.847C120.964 107.389 119.421 101.412 116.369 95.9654C113.394 90.5239 109.353 86.0038 104.268 82.4263C101.197 80.2166 97.9076 78.4913 94.4077 77.2518C99.5524 75.0774 103.982 71.7302 107.666 67.2243C112.919 60.7977 115.566 53.2549 115.616 44.7051L115.617 44.6898L115.616 44.6745C115.566 36.6707 113.173 29.4733 108.443 23.1658C103.748 16.8559 97.323 11.9416 89.2702 8.38432C81.2319 4.81241 72.1425 3.05682 62.0511 3.05682C51.9593 3.05682 42.8485 4.81258 34.766 8.38214C26.7557 11.8934 20.3543 16.7856 15.6591 23.0947C10.9241 29.4096 8.55682 36.6376 8.55682 44.6903C8.55682 53.1949 11.154 60.7355 16.3519 67.2075L16.358 67.215C20.0136 71.7308 24.4618 75.0786 29.6645 77.2521C26.1216 78.4905 22.7966 80.2142 19.6969 82.4231C14.6056 86.0038 10.561 90.529 7.58443 95.9776L7.58053 95.9848C4.6257 101.436 3.15909 107.412 3.15909 113.866C3.15909 122.283 5.75953 129.855 10.9308 136.496C16.0633 143.088 23.0843 148.227 31.8838 151.963ZM81.2683 121.017L81.2633 121.025C79.496 123.737 77.0158 125.909 73.7405 127.528C70.4974 129.084 66.6236 129.903 62.0511 129.903C57.531 129.903 53.6508 129.086 50.3505 127.523C47.0304 125.903 44.5345 123.733 42.7725 121.032C41.0221 118.301 40.1193 115.135 40.1193 111.452C40.1193 107.671 41.0467 104.437 42.8414 101.662C44.7151 98.7909 47.2794 96.5261 50.5981 94.8668L50.6096 94.8611L50.6209 94.8552C53.9177 93.1646 57.7085 92.2898 62.0511 92.2898C66.4463 92.2898 70.2307 93.1666 73.4697 94.8492L73.4811 94.8551L73.4926 94.8609C76.766 96.5189 79.3138 98.7856 81.1929 101.667L81.1975 101.674L81.2021 101.681C83.0373 104.454 83.983 107.682 83.983 111.452C83.983 115.127 83.061 118.287 81.2683 121.017ZM78.2531 39.2651L78.258 39.273L78.263 39.2808C79.7777 41.6726 80.5739 44.5105 80.5739 47.8864C80.5739 51.3145 79.775 54.2374 78.2435 56.7362C76.6902 59.2705 74.548 61.2596 71.7601 62.716C68.9916 64.1622 65.776 64.9176 62.0511 64.9176C58.3263 64.9176 55.1107 64.1622 52.3422 62.716C49.5542 61.2596 47.412 59.2705 45.8588 56.7362C44.3273 54.2374 43.5284 51.3145 43.5284 47.8864C43.5284 44.5003 44.306 41.6547 45.7811 39.2605C47.3276 36.7796 49.4618 34.8377 52.245 33.4254L52.2581 33.4187L52.2712 33.4119C55.0357 31.9678 58.2738 31.2102 62.0511 31.2102C65.8821 31.2102 69.1123 31.9702 71.8174 33.4047L71.8305 33.4117L71.8437 33.4185C74.5817 34.8289 76.7004 36.7727 78.2531 39.2651Z" fill="#141414" stroke="#595959" stroke-width="5"/>
</svg>
