<svg width="123" height="160" viewBox="0 0 123 160" fill="none" xmlns="http://www.w3.org/2000/svg">
<path d="M79.1999 95.1905C81.2245 93.5033 83.0384 91.6474 84.6398 89.6248C83.8949 100.234 81.5689 108.651 77.7951 115.002C73.3148 122.496 66.9263 126.139 58.3523 126.139C53.2187 126.139 49.0923 124.822 45.8134 122.325C42.5515 119.794 40.3463 116.216 39.2724 111.404L38.8359 109.449H36.8324H6.50569H3.69815L4.02242 112.238C5.01487 120.773 7.87671 128.502 12.6141 135.384L12.62 135.392L12.6259 135.401C17.4187 142.24 23.729 147.642 31.507 151.605L31.5183 151.611C39.3543 155.554 48.3204 157.489 58.3523 157.489C67.6809 157.489 76.2011 155.67 83.8669 151.986L83.8787 151.981C91.5389 148.25 98.0658 142.831 103.451 135.766C108.832 128.706 112.911 120.198 115.728 110.293C118.598 100.319 120.014 89.0486 120.014 76.5085L120.014 76.4995C119.966 63.1553 118.312 51.7554 114.972 42.3685C111.705 33.0106 107.199 25.3725 101.388 19.5599C95.6955 13.8189 89.182 9.61092 81.8595 6.97032C74.6707 4.36097 67.1873 3.05744 59.4231 3.05682C48.2404 3.00873 38.3061 5.23258 29.695 9.81136C21.1633 14.3257 14.474 20.6059 9.68514 28.6373C4.88498 36.6875 2.53687 45.8292 2.58524 55.989C2.5861 65.3989 4.60996 73.8699 8.71887 81.3361C12.8088 88.7677 18.4199 94.6365 25.5342 98.8951C32.6816 103.173 40.78 105.287 49.7585 105.287C55.3699 105.287 60.6921 104.417 65.7085 102.662C70.7516 100.914 75.2513 98.4304 79.1852 95.2026L79.1926 95.1965L79.1999 95.1905ZM37.4148 55.1307V55.1182L37.4147 55.1057C37.3713 50.773 38.3196 46.9239 40.2195 43.4999C42.1915 40.0313 44.8287 37.2923 48.1507 35.2466C51.4627 33.2357 55.2651 32.2045 59.6307 32.2045C63.8841 32.2045 67.6362 33.2507 70.955 35.3092C74.3347 37.4055 76.9711 40.1702 78.8942 43.6317C80.8112 47.0825 81.8015 50.8809 81.8466 55.0728C81.845 58.2076 81.2661 61.1433 80.1202 63.9018C78.959 66.6974 77.3533 69.157 75.2988 71.2971L75.2981 71.2979C73.3072 73.3734 70.9543 75.0091 68.2167 76.2068C65.5252 77.3843 62.5786 77.9858 59.3466 77.9858C55.0276 77.9858 51.2734 76.9778 48.0111 75.0162C44.7384 72.9725 42.1511 70.2607 40.2277 66.8472C38.3678 63.4165 37.4148 59.5299 37.4148 55.1307Z" fill="#141414" stroke="#595959" stroke-width="5"/>
</svg>
